<svg width="31" height="39" viewBox="0 0 31 39" fill="none" xmlns="http://www.w3.org/2000/svg">
<g clip-path="url(#clip0_606_878)">
<path d="M12.9386 1.23454C14.499 2.32849 14.9974 4.36528 14.7767 6.20127C14.3777 9.52027 10.9771 9.52393 8.42054 10.1206C7.96089 10.2278 6.99923 10.5248 6.76705 10.951C6.44075 11.5508 6.87791 11.9681 7.47196 12.0214C9.43501 12.1966 11.8143 10.8046 13.7131 11.6371C15.2144 12.2954 15.3357 14.5555 14.9289 15.923C14.2166 18.3164 11.1565 18.5988 9.06687 18.7154C7.05309 18.8273 4.24028 18.8372 2.36351 18.0711C0.258214 17.2109 -0.186272 15.2249 0.0615942 13.1086C0.509218 9.29385 4.94989 9.32051 7.83539 8.43677C8.23699 8.31389 9.04543 8.01059 9.1474 7.55251C9.37174 6.54274 8.5497 6.07316 7.65393 6.08518C5.74944 6.11081 4.78046 7.96771 2.58314 7.75906C0.491961 7.5614 0.0584567 4.75905 0.537978 3.12648C1.2115 0.832931 3.78534 0.274448 5.87442 0.096131C8.13973 -0.097351 11.0038 -0.122451 12.9386 1.23401V1.23454Z" fill="#FFFFDF"/>
<path d="M27.3981 8.60785C29.0464 9.60141 29.4882 11.6581 29.3434 13.4726C29.1598 15.7698 27.532 16.15 25.673 16.731C20.5044 18.3457 15.3259 19.9255 10.1578 21.5314C9.4843 21.7406 8.31765 21.9895 7.78427 22.4382C7.23363 22.9009 7.23468 23.7826 8.0541 23.9389C8.83692 24.0885 9.76877 23.8757 10.539 23.769C11.7235 23.6048 13.4334 23.3407 14.5018 23.975C15.99 24.8593 16.0277 27.2653 15.4007 28.7091C14.4552 30.8876 11.2664 31.045 9.22336 30.9273C7.2854 30.8154 5.17749 30.281 4.48044 28.2709C4.06576 27.0754 4.08249 25.2039 4.70372 24.0786C5.62616 22.4089 8.01645 21.9095 9.70288 21.3907C14.7888 19.8261 19.8743 18.2114 24.9728 16.6588C25.7384 16.4256 26.9254 16.2044 27.5189 15.6825C28.0628 15.204 27.9472 14.121 27.3877 13.6969C26.6022 13.1019 25.4764 13.2368 24.6407 13.6332C23.1813 14.325 22.5532 15.2887 20.7277 15.1345C18.2663 14.9258 18.0665 11.3009 19.1736 9.65684C20.1676 8.18062 22.3503 7.87105 23.9954 7.86373C25.1668 7.8585 26.381 7.99551 27.3981 8.60837V8.60785Z" fill="#FFFFDF"/>
<path d="M28.2353 20.6607C30.1764 21.5581 30.796 23.8255 30.5701 25.8377C30.2695 28.5198 27.7578 28.742 25.6515 29.3381C24.9346 29.541 23.4082 29.9202 22.9103 30.4405C22.6039 30.761 22.4899 31.4345 22.9072 31.6997C23.3245 31.9648 24.2543 31.8665 24.7285 31.8137C26.7324 31.5925 29.8182 30.6638 30.7725 33.1686C31.1537 34.1684 31.0355 35.7806 30.5644 36.7344C29.609 38.6687 26.8516 38.8972 24.9361 38.848C22.4408 38.7837 19.9443 38.1604 19.4925 35.3235C19.2865 34.0309 19.4517 32.4328 20.324 31.4162C21.442 30.1131 24.2501 29.4595 25.8863 28.9972C26.723 28.7608 28.5082 28.4675 28.9616 27.68C29.0474 27.5309 29.1091 27.2736 29.1101 27.0938C29.1222 25.4042 27.0817 25.3488 25.9135 25.8811C24.4739 26.5374 23.6717 27.6752 21.8321 27.3882C19.5668 27.0347 19.355 23.814 20.2602 22.1683C20.5587 21.6255 21.0623 21.1675 21.6067 20.8741C23.2644 19.9809 26.5316 19.8716 28.2342 20.6592L28.2353 20.6607Z" fill="#FFFFDF"/>
</g>
<defs>
<clipPath id="clip0_606_878">
<rect width="31" height="38.8543" fill="white"/>
</clipPath>
</defs>
</svg>
